<mxfile host="app.diagrams.net" modified="2024-05-17T15:02:43.120Z" agent="Mozilla/5.0 (Windows NT 10.0; Win64; x64) AppleWebKit/537.36 (KHTML, like Gecko) Chrome/124.0.0.0 Safari/537.36" version="24.4.4" etag="E7WnVuB_-YEYcfLks_PW" type="github">
  <diagram name="Strona-1" id="nC8E0Oeid4jfZtf9YFZV">
    <mxGraphModel>
      <root>
        <mxCell id="0" />
        <mxCell id="1" parent="0" />
      </root>
    </mxGraphModel>
  </diagram>
</mxfile>
